<?xml version="1.0" encoding="UTF-8"?>
<svg id="a092b8c9-05e3-4b05-b43b-ac1b26260135" xmlns="http://www.w3.org/2000/svg" viewBox="0 0 98.2 90.2">
  <defs>
    <style>
      .cls-1 {
        fill: #abacae;
        stroke-width: 0px;
      }
    </style>
  </defs>
  <circle class="cls-1" cx="3.8" cy="3.8" r="3.8"/>
  <circle class="cls-1" cx="12.5" cy="3.8" r="3.8"/>
  <circle class="cls-1" cx="21.1" cy="3.8" r="3.8"/>
  <circle class="cls-1" cx="29.7" cy="3.8" r="3.8"/>
  <circle class="cls-1" cx="38.3" cy="3.8" r="3.8"/>
  <circle class="cls-1" cx="46.9" cy="3.8" r="3.8"/>
  <circle class="cls-1" cx="55.6" cy="3.8" r="3.8"/>
  <circle class="cls-1" cx="64.2" cy="3.8" r="3.8"/>
  <circle class="cls-1" cx="72.8" cy="3.8" r="3.8"/>
  <circle class="cls-1" cx="81.4" cy="3.8" r="3.8"/>
  <circle class="cls-1" cx="90" cy="3.8" r="3.8"/>
  <circle class="cls-1" cx="8.2" cy="11.2" r="3.8"/>
  <circle class="cls-1" cx="16.8" cy="11.2" r="3.8"/>
  <circle class="cls-1" cx="25.4" cy="11.2" r="3.8"/>
  <circle class="cls-1" cx="34" cy="11.2" r="3.8"/>
  <circle class="cls-1" cx="42.6" cy="11.2" r="3.8"/>
  <circle class="cls-1" cx="51.3" cy="11.2" r="3.8"/>
  <circle class="cls-1" cx="59.9" cy="11.2" r="3.8"/>
  <circle class="cls-1" cx="68.5" cy="11.2" r="3.8"/>
  <circle class="cls-1" cx="77.1" cy="11.2" r="3.8"/>
  <circle class="cls-1" cx="85.7" cy="11.2" r="3.8"/>
  <circle class="cls-1" cx="94.4" cy="11.2" r="3.8"/>
  <circle class="cls-1" cx="3.8" cy="18.9" r="3.8"/>
  <circle class="cls-1" cx="12.5" cy="18.9" r="3.8"/>
  <circle class="cls-1" cx="21.1" cy="18.9" r="3.8"/>
  <circle class="cls-1" cx="29.7" cy="18.9" r="3.8"/>
  <circle class="cls-1" cx="38.3" cy="18.9" r="3.8"/>
  <circle class="cls-1" cx="46.9" cy="18.9" r="3.8"/>
  <circle class="cls-1" cx="55.6" cy="18.9" r="3.8"/>
  <circle class="cls-1" cx="64.2" cy="18.9" r="3.8"/>
  <circle class="cls-1" cx="72.8" cy="18.9" r="3.8"/>
  <circle class="cls-1" cx="81.4" cy="18.9" r="3.8"/>
  <circle class="cls-1" cx="90" cy="18.9" r="3.8"/>
  <circle class="cls-1" cx="8.2" cy="26.2" r="3.8"/>
  <circle class="cls-1" cx="16.8" cy="26.2" r="3.8"/>
  <circle class="cls-1" cx="25.4" cy="26.2" r="3.8"/>
  <circle class="cls-1" cx="34" cy="26.2" r="3.8"/>
  <circle class="cls-1" cx="42.6" cy="26.2" r="3.8"/>
  <circle class="cls-1" cx="51.3" cy="26.2" r="3.8"/>
  <circle class="cls-1" cx="59.9" cy="26.2" r="3.8"/>
  <circle class="cls-1" cx="68.5" cy="26.2" r="3.8"/>
  <circle class="cls-1" cx="77.1" cy="26.2" r="3.8"/>
  <circle class="cls-1" cx="85.7" cy="26.2" r="3.8"/>
  <circle class="cls-1" cx="94.4" cy="26.2" r="3.8"/>
  <circle class="cls-1" cx="3.8" cy="33.9" r="3.8"/>
  <circle class="cls-1" cx="12.5" cy="33.9" r="3.8"/>
  <circle class="cls-1" cx="21.1" cy="33.9" r="3.8"/>
  <circle class="cls-1" cx="29.7" cy="33.9" r="3.8"/>
  <circle class="cls-1" cx="38.3" cy="33.9" r="3.8"/>
  <circle class="cls-1" cx="46.9" cy="33.9" r="3.8"/>
  <circle class="cls-1" cx="55.6" cy="33.9" r="3.8"/>
  <circle class="cls-1" cx="64.2" cy="33.9" r="3.8"/>
  <circle class="cls-1" cx="72.8" cy="33.9" r="3.8"/>
  <circle class="cls-1" cx="81.4" cy="33.9" r="3.8"/>
  <circle class="cls-1" cx="90" cy="33.9" r="3.8"/>
  <circle class="cls-1" cx="8.2" cy="41.3" r="3.8"/>
  <circle class="cls-1" cx="16.8" cy="41.3" r="3.8"/>
  <circle class="cls-1" cx="25.4" cy="41.3" r="3.8"/>
  <circle class="cls-1" cx="34" cy="41.3" r="3.8"/>
  <circle class="cls-1" cx="42.6" cy="41.3" r="3.8"/>
  <circle class="cls-1" cx="51.3" cy="41.3" r="3.8"/>
  <circle class="cls-1" cx="59.9" cy="41.3" r="3.8"/>
  <circle class="cls-1" cx="68.5" cy="41.3" r="3.8"/>
  <circle class="cls-1" cx="77.1" cy="41.3" r="3.8"/>
  <circle class="cls-1" cx="85.7" cy="41.3" r="3.8"/>
  <circle class="cls-1" cx="94.4" cy="41.3" r="3.8"/>
  <circle class="cls-1" cx="3.8" cy="48.9" r="3.8"/>
  <circle class="cls-1" cx="12.5" cy="48.9" r="3.8"/>
  <circle class="cls-1" cx="21.1" cy="48.9" r="3.8"/>
  <circle class="cls-1" cx="29.7" cy="48.9" r="3.8"/>
  <circle class="cls-1" cx="38.3" cy="48.9" r="3.8"/>
  <circle class="cls-1" cx="46.9" cy="48.9" r="3.8"/>
  <circle class="cls-1" cx="55.6" cy="48.9" r="3.8"/>
  <circle class="cls-1" cx="64.2" cy="48.9" r="3.8"/>
  <circle class="cls-1" cx="72.8" cy="48.9" r="3.8"/>
  <circle class="cls-1" cx="81.4" cy="48.9" r="3.8"/>
  <circle class="cls-1" cx="90" cy="48.9" r="3.8"/>
  <circle class="cls-1" cx="8.2" cy="56.3" r="3.8"/>
  <circle class="cls-1" cx="16.8" cy="56.3" r="3.8"/>
  <circle class="cls-1" cx="25.4" cy="56.3" r="3.8"/>
  <circle class="cls-1" cx="34" cy="56.3" r="3.8"/>
  <circle class="cls-1" cx="42.6" cy="56.3" r="3.8"/>
  <circle class="cls-1" cx="51.3" cy="56.3" r="3.8"/>
  <circle class="cls-1" cx="59.9" cy="56.3" r="3.8"/>
  <circle class="cls-1" cx="68.5" cy="56.3" r="3.8"/>
  <circle class="cls-1" cx="77.1" cy="56.3" r="3.8"/>
  <circle class="cls-1" cx="85.7" cy="56.3" r="3.8"/>
  <circle class="cls-1" cx="94.4" cy="56.3" r="3.8"/>
  <circle class="cls-1" cx="3.8" cy="64" r="3.8"/>
  <circle class="cls-1" cx="12.5" cy="64" r="3.8"/>
  <circle class="cls-1" cx="21.1" cy="64" r="3.8"/>
  <circle class="cls-1" cx="29.7" cy="64" r="3.8"/>
  <circle class="cls-1" cx="38.3" cy="64" r="3.8"/>
  <circle class="cls-1" cx="46.9" cy="64" r="3.8"/>
  <circle class="cls-1" cx="55.6" cy="64" r="3.8"/>
  <circle class="cls-1" cx="64.2" cy="64" r="3.8"/>
  <circle class="cls-1" cx="72.8" cy="64" r="3.8"/>
  <circle class="cls-1" cx="81.4" cy="64" r="3.8"/>
  <circle class="cls-1" cx="90" cy="64" r="3.8"/>
  <circle class="cls-1" cx="8.2" cy="71.3" r="3.8"/>
  <circle class="cls-1" cx="16.8" cy="71.3" r="3.8"/>
  <circle class="cls-1" cx="25.4" cy="71.3" r="3.8"/>
  <circle class="cls-1" cx="34" cy="71.3" r="3.8"/>
  <circle class="cls-1" cx="42.6" cy="71.3" r="3.8"/>
  <circle class="cls-1" cx="51.3" cy="71.3" r="3.8"/>
  <circle class="cls-1" cx="59.9" cy="71.3" r="3.8"/>
  <circle class="cls-1" cx="68.5" cy="71.3" r="3.8"/>
  <circle class="cls-1" cx="77.1" cy="71.3" r="3.8"/>
  <circle class="cls-1" cx="85.7" cy="71.3" r="3.8"/>
  <circle class="cls-1" cx="94.4" cy="71.3" r="3.8"/>
  <circle class="cls-1" cx="3.8" cy="79" r="3.8"/>
  <circle class="cls-1" cx="12.5" cy="79" r="3.8"/>
  <circle class="cls-1" cx="21.1" cy="79" r="3.8"/>
  <circle class="cls-1" cx="29.7" cy="79" r="3.8"/>
  <circle class="cls-1" cx="38.3" cy="79" r="3.8"/>
  <circle class="cls-1" cx="46.9" cy="79" r="3.8"/>
  <circle class="cls-1" cx="55.6" cy="79" r="3.8"/>
  <circle class="cls-1" cx="64.2" cy="79" r="3.8"/>
  <circle class="cls-1" cx="72.8" cy="79" r="3.8"/>
  <circle class="cls-1" cx="81.4" cy="79" r="3.8"/>
  <circle class="cls-1" cx="90" cy="79" r="3.8"/>
  <circle class="cls-1" cx="8.2" cy="86.4" r="3.8"/>
  <circle class="cls-1" cx="16.8" cy="86.4" r="3.8"/>
  <circle class="cls-1" cx="25.4" cy="86.4" r="3.8"/>
  <circle class="cls-1" cx="34" cy="86.4" r="3.8"/>
  <circle class="cls-1" cx="42.6" cy="86.4" r="3.8"/>
  <circle class="cls-1" cx="51.3" cy="86.4" r="3.8"/>
  <circle class="cls-1" cx="59.9" cy="86.4" r="3.8"/>
  <circle class="cls-1" cx="68.5" cy="86.4" r="3.8"/>
  <circle class="cls-1" cx="77.1" cy="86.4" r="3.8"/>
  <circle class="cls-1" cx="85.7" cy="86.4" r="3.8"/>
  <circle class="cls-1" cx="94.4" cy="86.4" r="3.8"/>
</svg>