<?xml version="1.0" encoding="UTF-8"?>
<svg id="e14cc0d5-eee4-4031-986e-9762adfe86a9" xmlns="http://www.w3.org/2000/svg" viewBox="0 0 98.2 98.4">
  <defs>
    <style>
      .cls-1 {
        fill: #535355;
        stroke-width: 0px;
      }
    </style>
  </defs>
  <polygon class="cls-1" points="48 0 24.4 23.6 .7 0 48 0"/>
  <polygon class="cls-1" points="23.6 24.4 0 48 0 .7 23.6 24.4"/>
  <polygon class="cls-1" points="48 48.7 .7 48.7 24.4 25.1 48 48.7"/>
  <polygon class="cls-1" points="48.7 .7 48.7 48 25.1 24.4 48.7 .7"/>
  <polygon class="cls-1" points="73.3 48.7 49.5 48.7 49.5 1.5 73.3 48.7"/>
  <polygon class="cls-1" points="73.3 0 73.3 46.6 49.9 0 73.3 0"/>
  <polygon class="cls-1" points="98 0 74.4 46.6 74.4 0 98 0"/>
  <polygon class="cls-1" points="98.2 1.8 98.2 48.7 74.4 48.7 98.2 1.8"/>
  <polygon class="cls-1" points="50.2 98.4 73.8 74.8 97.5 98.4 50.2 98.4"/>
  <polygon class="cls-1" points="74.6 74 98.2 50.4 98.2 97.7 74.6 74"/>
  <polygon class="cls-1" points="50.2 49.7 97.5 49.7 73.8 73.3 50.2 49.7"/>
  <polygon class="cls-1" points="49.5 97.7 49.5 50.4 73.1 74 49.5 97.7"/>
  <polygon class="cls-1" points="24.9 49.7 48.7 49.7 48.7 96.9 24.9 49.7"/>
  <polygon class="cls-1" points="24.9 98.4 24.9 51.8 48.3 98.4 24.9 98.4"/>
  <polygon class="cls-1" points=".2 98.4 23.8 51.8 23.8 98.4 .2 98.4"/>
  <polygon class="cls-1" points="0 96.6 0 49.7 23.8 49.7 0 96.6"/>
</svg>