<?xml version="1.0" encoding="UTF-8"?>
<svg id="b076b42c-67f0-4766-b4a2-7cd7529da088" xmlns="http://www.w3.org/2000/svg" viewBox="0 0 98.2 91.6">
  <defs>
    <style>
      .cls-1 {
        fill: #535355;
        stroke-width: 0px;
      }
    </style>
  </defs>
  <path class="cls-1" d="M17,16.4c0,5.8-3.9,8-3.9,8H3.9s-3.9-2.2-3.9-8,3.9-8,3.9-8h9.2s3.9,2.2,3.9,8Z"/>
  <path class="cls-1" d="M17,33.2c0,5.8-3.9,8-3.9,8H3.9s-3.9-2.2-3.9-8,3.9-8,3.9-8h9.2s3.9,2.2,3.9,8Z"/>
  <path class="cls-1" d="M17,50c0,5.8-3.9,8-3.9,8H3.9s-3.9-2.2-3.9-8,3.9-8,3.9-8h9.2s3.9,2.2,3.9,8Z"/>
  <path class="cls-1" d="M17,66.8c0,5.8-3.9,8-3.9,8H3.9s-3.9-2.2-3.9-8,3.9-8,3.9-8h9.2s3.9,2.2,3.9,8Z"/>
  <path class="cls-1" d="M17,83.6c0,5.8-3.9,8-3.9,8H3.9s-3.9-2.2-3.9-8,3.9-8,3.9-8h9.2s3.9,2.2,3.9,8Z"/>
  <path class="cls-1" d="M33.3,8c0,5.8-3.9,8-3.9,8h-9.1s-3.9-2.2-3.9-8S20.3,0,20.3,0h9.1s3.9,2.2,3.9,8Z"/>
  <path class="cls-1" d="M33.3,24.8c0,5.8-3.9,8-3.9,8h-9.1s-3.9-2.2-3.9-8,3.9-8,3.9-8h9.1s3.9,2.2,3.9,8Z"/>
  <path class="cls-1" d="M33.3,41.6c0,5.8-3.9,8-3.9,8h-9.1s-3.9-2.2-3.9-8,3.9-8,3.9-8h9.1s3.9,2.2,3.9,8Z"/>
  <path class="cls-1" d="M33.3,58.4c0,5.8-3.9,8-3.9,8h-9.1s-3.9-2.2-3.9-8,3.9-8,3.9-8h9.1s3.9,2.2,3.9,8Z"/>
  <path class="cls-1" d="M33.3,75.2c0,5.8-3.9,8-3.9,8h-9.1s-3.9-2.2-3.9-8,3.9-8,3.9-8h9.1s3.9,2.2,3.9,8Z"/>
  <path class="cls-1" d="M49.5,16.4c0,5.8-3.9,8-3.9,8h-9.1s-3.9-2.2-3.9-8,3.9-8,3.9-8h9.1c2.57,1.83,4.04,4.85,3.9,8Z"/>
  <path class="cls-1" d="M49.5,33.2c0,5.8-3.9,8-3.9,8h-9.1s-3.9-2.2-3.9-8,3.9-8,3.9-8h9.1c2.57,1.83,4.04,4.85,3.9,8Z"/>
  <path class="cls-1" d="M49.5,50c0,5.8-3.9,8-3.9,8h-9.1s-3.9-2.2-3.9-8,3.9-8,3.9-8h9.1c2.57,1.83,4.04,4.85,3.9,8Z"/>
  <path class="cls-1" d="M49.5,66.8c0,5.8-3.9,8-3.9,8h-9.1s-3.9-2.2-3.9-8,3.9-8,3.9-8h9.1c2.57,1.83,4.04,4.85,3.9,8Z"/>
  <path class="cls-1" d="M49.5,83.6c0,5.8-3.9,8-3.9,8h-9.1s-3.9-2.2-3.9-8,3.9-8,3.9-8h9.1c2.57,1.83,4.04,4.85,3.9,8Z"/>
  <path class="cls-1" d="M65.8,8c0,5.8-3.9,8-3.9,8h-9.1s-3.9-2.2-3.9-8,3.9-8,3.9-8h9.1c2.57,1.83,4.04,4.85,3.9,8Z"/>
  <path class="cls-1" d="M65.8,24.8c0,5.8-3.9,8-3.9,8h-9.1s-3.9-2.2-3.9-8,3.9-8,3.9-8h9.1c2.57,1.83,4.04,4.85,3.9,8Z"/>
  <path class="cls-1" d="M65.8,41.6c0,5.8-3.9,8-3.9,8h-9.1s-3.9-2.2-3.9-8,3.9-8,3.9-8h9.1c2.57,1.83,4.04,4.85,3.9,8Z"/>
  <path class="cls-1" d="M65.8,58.4c0,5.8-3.9,8-3.9,8h-9.1s-3.9-2.2-3.9-8,3.9-8,3.9-8h9.1c2.57,1.83,4.04,4.85,3.9,8Z"/>
  <path class="cls-1" d="M65.8,75.2c0,5.8-3.9,8-3.9,8h-9.1s-3.9-2.2-3.9-8,3.9-8,3.9-8h9.1c2.57,1.83,4.04,4.85,3.9,8Z"/>
  <path class="cls-1" d="M81.9,16.4c0,5.8-3.9,8-3.9,8h-9.1s-3.9-2.2-3.9-8,3.9-8,3.9-8h9.1s3.9,2.2,3.9,8Z"/>
  <path class="cls-1" d="M81.9,33.2c0,5.8-3.9,8-3.9,8h-9.1s-3.9-2.2-3.9-8,3.9-8,3.9-8h9.1s3.9,2.2,3.9,8Z"/>
  <path class="cls-1" d="M81.9,50c0,5.8-3.9,8-3.9,8h-9.1s-3.9-2.2-3.9-8,3.9-8,3.9-8h9.1s3.9,2.2,3.9,8Z"/>
  <path class="cls-1" d="M81.9,66.8c0,5.8-3.9,8-3.9,8h-9.1s-3.9-2.2-3.9-8,3.9-8,3.9-8h9.1s3.9,2.2,3.9,8Z"/>
  <path class="cls-1" d="M81.9,83.6c0,5.8-3.9,8-3.9,8h-9.1s-3.9-2.2-3.9-8,3.9-8,3.9-8h9.1s3.9,2.2,3.9,8Z"/>
  <path class="cls-1" d="M98.2,8c0,5.8-3.9,8-3.9,8h-9.2s-3.9-2.2-3.9-8,3.9-8,3.9-8h9.1c.1,0,4,2.2,4,8Z"/>
  <path class="cls-1" d="M98.2,24.8c0,5.8-3.9,8-3.9,8h-9.2s-3.9-2.2-3.9-8,3.9-8,3.9-8h9.1c.1,0,4,2.2,4,8Z"/>
  <path class="cls-1" d="M98.2,41.6c0,5.8-3.9,8-3.9,8h-9.2s-3.9-2.2-3.9-8,3.9-8,3.9-8h9.1c.1,0,4,2.2,4,8Z"/>
  <path class="cls-1" d="M98.2,58.4c0,5.8-3.9,8-3.9,8h-9.2s-3.9-2.2-3.9-8,3.9-8,3.9-8h9.1c.1,0,4,2.2,4,8Z"/>
  <path class="cls-1" d="M98.2,75.2c0,5.8-3.9,8-3.9,8h-9.2s-3.9-2.2-3.9-8,3.9-8,3.9-8h9.1c.1,0,4,2.2,4,8Z"/>
</svg>