<?xml version="1.0" encoding="UTF-8"?>
<svg id="a38e51b1-efd2-456b-9654-01bff574064b" xmlns="http://www.w3.org/2000/svg" viewBox="0 0 98.2 98.2">
  <defs>
    <style>
      .cls-1 {
        fill: #535355;
        stroke-width: 0px;
      }
    </style>
  </defs>
  <polygon class="cls-1" points="0 79.1 19 98.2 0 98.2 0 79.1"/>
  <polygon class="cls-1" points="18.2 0 9.3 8.6 .7 0 18.2 0"/>
  <polygon class="cls-1" points="38.2 0 19.2 18.5 10 9.3 19.6 0 38.2 0"/>
  <polygon class="cls-1" points="57.9 0 28.9 28.3 19.9 19.2 39.6 0 57.9 0"/>
  <polygon class="cls-1" points="77.7 0 38.7 38 29.6 29 59.3 0 77.7 0"/>
  <polygon class="cls-1" points="97.2 0 48.3 47.7 39.4 38.7 79.1 0 97.2 0"/>
  <polygon class="cls-1" points="0 59.2 38.9 98.2 20.4 98.2 0 77.7 0 59.2"/>
  <polygon class="cls-1" points="58.8 98.2 40.3 98.2 0 57.9 0 39.4 58.8 98.2"/>
  <polygon class="cls-1" points="78.1 98.2 60.2 98.2 0 38 0 20 78.1 98.2"/>
  <polygon class="cls-1" points="97.4 98.2 79.5 98.2 0 18.6 0 .7 97.4 98.2"/>
  <polygon class="cls-1" points="98.2 18.9 58.4 57.7 49 48.3 98.2 .4 98.2 18.9"/>
  <polygon class="cls-1" points="68.4 67.7 59.1 58.4 98.2 20.3 98.2 38.7 68.4 67.7"/>
  <polygon class="cls-1" points="78.4 77.7 69.1 68.4 98.2 40.1 98.2 58.5 78.4 77.7"/>
  <polygon class="cls-1" points="88.3 87.6 79.1 78.4 98.2 59.8 98.2 78 88.3 87.6"/>
  <polygon class="cls-1" points="98.2 97.6 89 88.3 98.2 79.3 98.2 97.6"/>
</svg>