<?xml version="1.0" encoding="UTF-8"?>
<svg xmlns="http://www.w3.org/2000/svg" viewBox="0 0 19.35 159.14">
  <defs>
    <style>
      .cls-1 {
        fill: #414142;
        font-family: Syne-Bold, Syne;
        font-size: 6px;
        font-variation-settings: 'wght' 700;
        font-weight: 700;
      }

      .cls-2 {
        fill: none;
        stroke: #414142;
        stroke-miterlimit: 10;
        stroke-width: .5px;
      }
    </style>
  </defs>
  <g id="Layer_2" data-name="Layer 2">
    <line class="cls-2" x1="11.16" y1="3.2" x2="19.35" y2="3.2"/>
    <line class="cls-2" x1="11.16" y1="7.02" x2="15.25" y2="7.02"/>
    <line class="cls-2" x1="11.16" y1="10.83" x2="15.25" y2="10.83"/>
    <line class="cls-2" x1="11.16" y1="14.65" x2="15.25" y2="14.65"/>
    <line class="cls-2" x1="11.16" y1="18.46" x2="15.25" y2="18.46"/>
    <line class="cls-2" x1="11.16" y1="22.28" x2="19.35" y2="22.28"/>
    <line class="cls-2" x1="11.16" y1="26.09" x2="15.25" y2="26.09"/>
    <line class="cls-2" x1="11.16" y1="29.91" x2="15.25" y2="29.91"/>
    <line class="cls-2" x1="11.16" y1="33.72" x2="15.25" y2="33.72"/>
    <line class="cls-2" x1="11.16" y1="37.54" x2="15.25" y2="37.54"/>
    <line class="cls-2" x1="11.16" y1="41.35" x2="19.35" y2="41.35"/>
    <line class="cls-2" x1="11.16" y1="45.16" x2="15.25" y2="45.16"/>
    <line class="cls-2" x1="11.16" y1="48.98" x2="15.25" y2="48.98"/>
    <line class="cls-2" x1="11.16" y1="52.79" x2="15.25" y2="52.79"/>
    <line class="cls-2" x1="11.16" y1="56.61" x2="15.25" y2="56.61"/>
    <line class="cls-2" x1="11.16" y1="60.42" x2="19.35" y2="60.42"/>
    <line class="cls-2" x1="11.16" y1="64.24" x2="15.25" y2="64.24"/>
    <line class="cls-2" x1="11.16" y1="68.05" x2="15.25" y2="68.05"/>
    <line class="cls-2" x1="11.16" y1="71.87" x2="15.25" y2="71.87"/>
    <line class="cls-2" x1="11.16" y1="75.68" x2="15.25" y2="75.68"/>
    <line class="cls-2" x1="11.16" y1="79.5" x2="19.35" y2="79.5"/>
    <line class="cls-2" x1="11.16" y1="83.31" x2="15.25" y2="83.31"/>
    <line class="cls-2" x1="11.16" y1="87.12" x2="15.25" y2="87.12"/>
    <line class="cls-2" x1="11.16" y1="90.94" x2="15.25" y2="90.94"/>
    <line class="cls-2" x1="11.16" y1="94.75" x2="15.25" y2="94.75"/>
    <line class="cls-2" x1="11.16" y1="98.57" x2="19.35" y2="98.57"/>
    <line class="cls-2" x1="11.16" y1="102.38" x2="15.25" y2="102.38"/>
    <line class="cls-2" x1="11.16" y1="106.2" x2="15.25" y2="106.2"/>
    <line class="cls-2" x1="11.16" y1="110.01" x2="15.25" y2="110.01"/>
    <line class="cls-2" x1="11.16" y1="113.83" x2="15.25" y2="113.83"/>
    <line class="cls-2" x1="11.16" y1="117.64" x2="19.35" y2="117.64"/>
    <line class="cls-2" x1="11.16" y1="121.46" x2="15.25" y2="121.46"/>
    <line class="cls-2" x1="11.16" y1="125.27" x2="15.25" y2="125.27"/>
    <line class="cls-2" x1="11.16" y1="129.09" x2="15.25" y2="129.09"/>
    <line class="cls-2" x1="11.16" y1="132.9" x2="15.25" y2="132.9"/>
    <line class="cls-2" x1="11.16" y1="136.71" x2="19.35" y2="136.71"/>
    <line class="cls-2" x1="11.16" y1="140.53" x2="15.25" y2="140.53"/>
    <line class="cls-2" x1="11.16" y1="144.34" x2="15.25" y2="144.34"/>
    <line class="cls-2" x1="11.16" y1="148.16" x2="15.25" y2="148.16"/>
    <line class="cls-2" x1="11.16" y1="151.97" x2="15.25" y2="151.97"/>
    <line class="cls-2" x1="11.16" y1="155.79" x2="19.35" y2="155.79"/>
  </g>
  <g id="Layer_3" data-name="Layer 3">
    <text class="cls-1" transform="translate(0 4.95)"><tspan x="0" y="0">0”</tspan></text>
    <text class="cls-1" transform="translate(0 157.62)"><tspan x="0" y="0">8”</tspan></text>
  </g>
</svg>