<svg id="a092b8c9-05e3-4b05-b43b-ac1b26260135" data-name="a525e934-690d-4aef-a897-9e683fe4aae0"
    xmlns="http://www.w3.org/2000/svg" viewBox="0 0 100 100">
    <circle cx="4.7" cy="8.7" r="3.8" fill="#fff" stroke="#000" stroke-width="0.3863"/>
    <circle cx="13.4" cy="8.7" r="3.8" fill="#fff" stroke="#000" stroke-width="0.3863"/>
    <circle cx="22" cy="8.7" r="3.8" fill="#fff" stroke="#000" stroke-width="0.3863"/>
    <circle cx="30.6" cy="8.7" r="3.8" fill="#fff" stroke="#000" stroke-width="0.3863"/>
    <circle cx="39.2" cy="8.7" r="3.8" fill="#fff" stroke="#000" stroke-width="0.3863"/>
    <circle cx="47.8" cy="8.7" r="3.8" fill="#fff" stroke="#000" stroke-width="0.3863"/>
    <circle cx="56.5" cy="8.7" r="3.8" fill="#fff" stroke="#000" stroke-width="0.3863"/>
    <circle cx="65.1" cy="8.7" r="3.8" fill="#fff" stroke="#000" stroke-width="0.3863"/>
    <circle cx="73.7" cy="8.7" r="3.8" fill="#fff" stroke="#000" stroke-width="0.3863"/>
    <circle cx="82.3" cy="8.7" r="3.8" fill="#fff" stroke="#000" stroke-width="0.3863"/>
    <circle cx="90.9" cy="8.7" r="3.8" fill="#fff" stroke="#000" stroke-width="0.3863"/>
    <circle cx="9.1" cy="16.1" r="3.8" fill="#fff" stroke="#000" stroke-width="0.3863"/>
    <circle cx="17.7" cy="16.1" r="3.8" fill="#fff" stroke="#000" stroke-width="0.3863"/>
    <circle cx="26.3" cy="16.1" r="3.8" fill="#fff" stroke="#000" stroke-width="0.3863"/>
    <circle cx="34.9" cy="16.1" r="3.8" fill="#fff" stroke="#000" stroke-width="0.3863"/>
    <circle cx="43.5" cy="16.1" r="3.8" fill="#fff" stroke="#000" stroke-width="0.3863"/>
    <circle cx="52.2" cy="16.1" r="3.8" fill="#fff" stroke="#000" stroke-width="0.3863"/>
    <circle cx="60.8" cy="16.1" r="3.8" fill="#fff" stroke="#000" stroke-width="0.3863"/>
    <circle cx="69.4" cy="16.1" r="3.8" fill="#fff" stroke="#000" stroke-width="0.3863"/>
    <circle cx="78" cy="16.1" r="3.8" fill="#fff" stroke="#000" stroke-width="0.3863"/>
    <circle cx="86.6" cy="16.1" r="3.8" fill="#fff" stroke="#000" stroke-width="0.3863"/>
    <circle cx="95.3" cy="16.1" r="3.8" fill="#fff" stroke="#000" stroke-width="0.3863"/>
    <circle cx="4.7" cy="23.8" r="3.8" fill="#fff" stroke="#000" stroke-width="0.3863"/>
    <circle cx="13.4" cy="23.8" r="3.8" fill="#fff" stroke="#000" stroke-width="0.3863"/>
    <circle cx="22" cy="23.8" r="3.8" fill="#fff" stroke="#000" stroke-width="0.3863"/>
    <circle cx="30.6" cy="23.8" r="3.8" fill="#fff" stroke="#000" stroke-width="0.3863"/>
    <circle cx="39.2" cy="23.8" r="3.8" fill="#fff" stroke="#000" stroke-width="0.3863"/>
    <circle cx="47.8" cy="23.8" r="3.8" fill="#fff" stroke="#000" stroke-width="0.3863"/>
    <circle cx="56.5" cy="23.8" r="3.8" fill="#fff" stroke="#000" stroke-width="0.3863"/>
    <circle cx="65.1" cy="23.8" r="3.8" fill="#fff" stroke="#000" stroke-width="0.3863"/>
    <circle cx="73.7" cy="23.8" r="3.8" fill="#fff" stroke="#000" stroke-width="0.3863"/>
    <circle cx="82.3" cy="23.8" r="3.8" fill="#fff" stroke="#000" stroke-width="0.3863"/>
    <circle cx="90.9" cy="23.8" r="3.8" fill="#fff" stroke="#000" stroke-width="0.3863"/>
    <circle cx="9.1" cy="31.1" r="3.8" fill="#fff" stroke="#000" stroke-width="0.3863"/>
    <circle cx="17.7" cy="31.1" r="3.8" fill="#fff" stroke="#000" stroke-width="0.3863"/>
    <circle cx="26.3" cy="31.1" r="3.8" fill="#fff" stroke="#000" stroke-width="0.3863"/>
    <circle cx="34.9" cy="31.1" r="3.8" fill="#fff" stroke="#000" stroke-width="0.3863"/>
    <circle cx="43.5" cy="31.1" r="3.8" fill="#fff" stroke="#000" stroke-width="0.3863"/>
    <circle cx="52.2" cy="31.1" r="3.8" fill="#fff" stroke="#000" stroke-width="0.3863"/>
    <circle cx="60.8" cy="31.1" r="3.8" fill="#fff" stroke="#000" stroke-width="0.3863"/>
    <circle cx="69.4" cy="31.1" r="3.8" fill="#fff" stroke="#000" stroke-width="0.3863"/>
    <circle cx="78" cy="31.1" r="3.8" fill="#fff" stroke="#000" stroke-width="0.3863"/>
    <circle cx="86.6" cy="31.1" r="3.8" fill="#fff" stroke="#000" stroke-width="0.3863"/>
    <circle cx="95.3" cy="31.1" r="3.8" fill="#fff" stroke="#000" stroke-width="0.3863"/>
    <circle cx="4.7" cy="38.8" r="3.8" fill="#fff" stroke="#000" stroke-width="0.3863"/>
    <circle cx="13.4" cy="38.8" r="3.8" fill="#fff" stroke="#000" stroke-width="0.3863"/>
    <circle cx="22" cy="38.8" r="3.8" fill="#fff" stroke="#000" stroke-width="0.3863"/>
    <circle cx="30.6" cy="38.8" r="3.8" fill="#fff" stroke="#000" stroke-width="0.3863"/>
    <circle cx="39.2" cy="38.8" r="3.8" fill="#fff" stroke="#000" stroke-width="0.3863"/>
    <circle cx="47.8" cy="38.8" r="3.8" fill="#fff" stroke="#000" stroke-width="0.3863"/>
    <circle cx="56.5" cy="38.8" r="3.8" fill="#fff" stroke="#000" stroke-width="0.3863"/>
    <circle cx="65.1" cy="38.8" r="3.8" fill="#fff" stroke="#000" stroke-width="0.3863"/>
    <circle cx="73.7" cy="38.8" r="3.8" fill="#fff" stroke="#000" stroke-width="0.3863"/>
    <circle cx="82.3" cy="38.8" r="3.8" fill="#fff" stroke="#000" stroke-width="0.3863"/>
    <circle cx="90.9" cy="38.8" r="3.8" fill="#fff" stroke="#000" stroke-width="0.3863"/>
    <circle cx="9.1" cy="46.2" r="3.8" fill="#fff" stroke="#000" stroke-width="0.3863"/>
    <circle cx="17.7" cy="46.2" r="3.8" fill="#fff" stroke="#000" stroke-width="0.3863"/>
    <circle cx="26.3" cy="46.2" r="3.8" fill="#fff" stroke="#000" stroke-width="0.3863"/>
    <circle cx="34.9" cy="46.2" r="3.8" fill="#fff" stroke="#000" stroke-width="0.3863"/>
    <circle cx="43.5" cy="46.2" r="3.8" fill="#fff" stroke="#000" stroke-width="0.3863"/>
    <circle cx="52.2" cy="46.2" r="3.8" fill="#fff" stroke="#000" stroke-width="0.3863"/>
    <circle cx="60.8" cy="46.2" r="3.8" fill="#fff" stroke="#000" stroke-width="0.3863"/>
    <circle cx="69.4" cy="46.2" r="3.8" fill="#fff" stroke="#000" stroke-width="0.3863"/>
    <circle cx="78" cy="46.2" r="3.8" fill="#fff" stroke="#000" stroke-width="0.3863"/>
    <circle cx="86.6" cy="46.2" r="3.8" fill="#fff" stroke="#000" stroke-width="0.3863"/>
    <circle cx="95.3" cy="46.2" r="3.8" fill="#fff" stroke="#000" stroke-width="0.3863"/>
    <circle cx="4.7" cy="53.8" r="3.8" fill="#fff" stroke="#000" stroke-width="0.3863"/>
    <circle cx="13.4" cy="53.8" r="3.8" fill="#fff" stroke="#000" stroke-width="0.3863"/>
    <circle cx="22" cy="53.8" r="3.8" fill="#fff" stroke="#000" stroke-width="0.3863"/>
    <circle cx="30.6" cy="53.8" r="3.8" fill="#fff" stroke="#000" stroke-width="0.3863"/>
    <circle cx="39.2" cy="53.8" r="3.8" fill="#fff" stroke="#000" stroke-width="0.3863"/>
    <circle cx="47.8" cy="53.8" r="3.8" fill="#fff" stroke="#000" stroke-width="0.3863"/>
    <circle cx="56.5" cy="53.8" r="3.8" fill="#fff" stroke="#000" stroke-width="0.3863"/>
    <circle cx="65.1" cy="53.8" r="3.8" fill="#fff" stroke="#000" stroke-width="0.3863"/>
    <circle cx="73.7" cy="53.8" r="3.8" fill="#fff" stroke="#000" stroke-width="0.3863"/>
    <circle cx="82.3" cy="53.8" r="3.8" fill="#fff" stroke="#000" stroke-width="0.3863"/>
    <circle cx="90.9" cy="53.8" r="3.8" fill="#fff" stroke="#000" stroke-width="0.3863"/>
    <circle cx="9.1" cy="61.2" r="3.8" fill="#fff" stroke="#000" stroke-width="0.3863"/>
    <circle cx="17.7" cy="61.2" r="3.8" fill="#fff" stroke="#000" stroke-width="0.3863"/>
    <circle cx="26.3" cy="61.2" r="3.8" fill="#fff" stroke="#000" stroke-width="0.3863"/>
    <circle cx="34.9" cy="61.2" r="3.8" fill="#fff" stroke="#000" stroke-width="0.3863"/>
    <circle cx="43.5" cy="61.2" r="3.8" fill="#fff" stroke="#000" stroke-width="0.3863"/>
    <circle cx="52.2" cy="61.2" r="3.8" fill="#fff" stroke="#000" stroke-width="0.3863"/>
    <circle cx="60.8" cy="61.2" r="3.8" fill="#fff" stroke="#000" stroke-width="0.3863"/>
    <circle cx="69.4" cy="61.2" r="3.8" fill="#fff" stroke="#000" stroke-width="0.3863"/>
    <circle cx="78" cy="61.2" r="3.8" fill="#fff" stroke="#000" stroke-width="0.3863"/>
    <circle cx="86.6" cy="61.2" r="3.8" fill="#fff" stroke="#000" stroke-width="0.3863"/>
    <circle cx="95.3" cy="61.2" r="3.8" fill="#fff" stroke="#000" stroke-width="0.3863"/>
    <circle cx="4.7" cy="68.9" r="3.8" fill="#fff" stroke="#000" stroke-width="0.3863"/>
    <circle cx="13.4" cy="68.9" r="3.8" fill="#fff" stroke="#000" stroke-width="0.3863"/>
    <circle cx="22" cy="68.9" r="3.8" fill="#fff" stroke="#000" stroke-width="0.3863"/>
    <circle cx="30.6" cy="68.9" r="3.8" fill="#fff" stroke="#000" stroke-width="0.3863"/>
    <circle cx="39.2" cy="68.9" r="3.8" fill="#fff" stroke="#000" stroke-width="0.3863"/>
    <circle cx="47.8" cy="68.9" r="3.8" fill="#fff" stroke="#000" stroke-width="0.3863"/>
    <circle cx="56.5" cy="68.9" r="3.8" fill="#fff" stroke="#000" stroke-width="0.3863"/>
    <circle cx="65.1" cy="68.9" r="3.8" fill="#fff" stroke="#000" stroke-width="0.3863"/>
    <circle cx="73.7" cy="68.9" r="3.8" fill="#fff" stroke="#000" stroke-width="0.3863"/>
    <circle cx="82.3" cy="68.9" r="3.8" fill="#fff" stroke="#000" stroke-width="0.3863"/>
    <circle cx="90.9" cy="68.9" r="3.8" fill="#fff" stroke="#000" stroke-width="0.3863"/>
    <circle cx="9.1" cy="76.2" r="3.8" fill="#fff" stroke="#000" stroke-width="0.3863"/>
    <circle cx="17.7" cy="76.2" r="3.8" fill="#fff" stroke="#000" stroke-width="0.3863"/>
    <circle cx="26.3" cy="76.2" r="3.8" fill="#fff" stroke="#000" stroke-width="0.3863"/>
    <circle cx="34.9" cy="76.2" r="3.8" fill="#fff" stroke="#000" stroke-width="0.3863"/>
    <circle cx="43.5" cy="76.2" r="3.8" fill="#fff" stroke="#000" stroke-width="0.3863"/>
    <circle cx="52.2" cy="76.2" r="3.8" fill="#fff" stroke="#000" stroke-width="0.3863"/>
    <circle cx="60.8" cy="76.2" r="3.8" fill="#fff" stroke="#000" stroke-width="0.3863"/>
    <circle cx="69.4" cy="76.2" r="3.8" fill="#fff" stroke="#000" stroke-width="0.3863"/>
    <circle cx="78" cy="76.2" r="3.8" fill="#fff" stroke="#000" stroke-width="0.3863"/>
    <circle cx="86.6" cy="76.2" r="3.8" fill="#fff" stroke="#000" stroke-width="0.3863"/>
    <circle cx="95.3" cy="76.2" r="3.8" fill="#fff" stroke="#000" stroke-width="0.3863"/>
    <circle cx="4.7" cy="83.9" r="3.8" fill="#fff" stroke="#000" stroke-width="0.3863"/>
    <circle cx="13.4" cy="83.9" r="3.8" fill="#fff" stroke="#000" stroke-width="0.3863"/>
    <circle cx="22" cy="83.9" r="3.8" fill="#fff" stroke="#000" stroke-width="0.3863"/>
    <circle cx="30.6" cy="83.9" r="3.8" fill="#fff" stroke="#000" stroke-width="0.3863"/>
    <circle cx="39.2" cy="83.9" r="3.8" fill="#fff" stroke="#000" stroke-width="0.3863"/>
    <circle cx="47.8" cy="83.9" r="3.8" fill="#fff" stroke="#000" stroke-width="0.3863"/>
    <circle cx="56.5" cy="83.9" r="3.8" fill="#fff" stroke="#000" stroke-width="0.3863"/>
    <circle cx="65.1" cy="83.9" r="3.8" fill="#fff" stroke="#000" stroke-width="0.3863"/>
    <circle cx="73.7" cy="83.9" r="3.8" fill="#fff" stroke="#000" stroke-width="0.3863"/>
    <circle cx="82.3" cy="83.9" r="3.8" fill="#fff" stroke="#000" stroke-width="0.3863"/>
    <circle cx="90.9" cy="83.9" r="3.8" fill="#fff" stroke="#000" stroke-width="0.3863"/>
    <circle cx="9.1" cy="91.3" r="3.8" fill="#fff" stroke="#000" stroke-width="0.3863"/>
    <circle cx="17.7" cy="91.3" r="3.8" fill="#fff" stroke="#000" stroke-width="0.3863"/>
    <circle cx="26.3" cy="91.3" r="3.8" fill="#fff" stroke="#000" stroke-width="0.3863"/>
    <circle cx="34.9" cy="91.3" r="3.8" fill="#fff" stroke="#000" stroke-width="0.3863"/>
    <circle cx="43.5" cy="91.3" r="3.8" fill="#fff" stroke="#000" stroke-width="0.3863"/>
    <circle cx="52.2" cy="91.3" r="3.8" fill="#fff" stroke="#000" stroke-width="0.3863"/>
    <circle cx="60.8" cy="91.3" r="3.8" fill="#fff" stroke="#000" stroke-width="0.3863"/>
    <circle cx="69.4" cy="91.3" r="3.8" fill="#fff" stroke="#000" stroke-width="0.3863"/>
    <circle cx="78" cy="91.3" r="3.8" fill="#fff" stroke="#000" stroke-width="0.3863"/>
    <circle cx="86.6" cy="91.3" r="3.8" fill="#fff" stroke="#000" stroke-width="0.3863"/>
    <circle cx="95.3" cy="91.3" r="3.8" fill="#fff" stroke="#000" stroke-width="0.3863"/>
</svg>
