<?xml version="1.0" encoding="UTF-8"?>
<svg id="f14d705e-9872-4c99-98f0-56d400c319d2" xmlns="http://www.w3.org/2000/svg" viewBox="0 0 98.2 78">
  <defs>
    <style>
      .cls-1 {
        fill: #535355;
        stroke-width: 0px;
      }
    </style>
  </defs>
  <path class="cls-1" d="M41.6,5.2v30.8c-2.27.02-4.47.75-6.3,2.1-2.9,2.2-5,3.1-7.4,3.1s-4.5-.9-7.4-3.1c-1.93-1.29-4.18-2.01-6.5-2.1V5.2c2.27-.02,4.47-.75,6.3-2.1,2.9-2.2,5-3.1,7.4-3.1s4.5.9,7.4,3.1c1.91,1.34,4.17,2.07,6.5,2.1Z"/>
  <path class="cls-1" d="M69.9,5.2v30.8c-2.27.02-4.47.75-6.3,2.1-2.9,2.2-5,3.1-7.4,3.1s-4.5-.9-7.4-3.1c-1.93-1.29-4.18-2.01-6.5-2.1V5.2c2.27-.02,4.47-.75,6.3-2.1,2.9-2.2,5-3.1,7.4-3.1s4.5.9,7.4,3.1c1.91,1.34,4.17,2.07,6.5,2.1Z"/>
  <path class="cls-1" d="M98.2,5.2v30.8c-2.27.02-4.47.75-6.3,2.1-2.9,2.2-5,3.1-7.4,3.1s-4.5-.9-7.4-3.1c-1.93-1.29-4.18-2.01-6.5-2.1V5.2c2.27-.02,4.47-.75,6.3-2.1,2.9-2.2,5-3.1,7.4-3.1s4.5.9,7.4,3.1c1.91,1.34,4.17,2.07,6.5,2.1Z"/>
  <path class="cls-1" d="M41.6,5.2v30.8c-2.27.02-4.47.75-6.3,2.1-2.9,2.2-5,3.1-7.4,3.1s-4.5-.9-7.4-3.1c-1.93-1.29-4.18-2.01-6.5-2.1V5.2c2.27-.02,4.47-.75,6.3-2.1,2.9-2.2,5-3.1,7.4-3.1s4.5.9,7.4,3.1c1.91,1.34,4.17,2.07,6.5,2.1Z"/>
  <path class="cls-1" d="M27.4,42v30.8c-2.27.02-4.47.75-6.3,2.1-2.9,2.2-5,3.1-7.4,3.1s-4.5-.9-7.4-3.1c-1.83-1.33-4.03-2.07-6.3-2.1v-30.8c2.27-.02,4.47-.75,6.3-2.1,2.9-2.2,5-3.1,7.4-3.1s4.5.9,7.4,3.1c1.85,1.29,4.04,2.02,6.3,2.1Z"/>
  <path class="cls-1" d="M55.7,42v30.8c-2.27.02-4.47.75-6.3,2.1-2.9,2.2-5,3.1-7.4,3.1s-4.5-.9-7.4-3.1c-1.83-1.33-4.03-2.07-6.3-2.1v-30.8c2.27-.02,4.47-.75,6.3-2.1,2.9-2.2,5-3.1,7.4-3.1s4.5.9,7.4,3.1c1.85,1.29,4.04,2.02,6.3,2.1Z"/>
  <path class="cls-1" d="M84,42v30.8c-2.27.02-4.47.75-6.3,2.1-2.9,2.2-5,3.1-7.4,3.1s-4.5-.9-7.4-3.1c-1.83-1.33-4.03-2.07-6.3-2.1v-30.8c2.27-.02,4.47-.75,6.3-2.1,2.9-2.2,5-3.1,7.4-3.1s4.5.9,7.4,3.1c1.85,1.29,4.04,2.02,6.3,2.1Z"/>
  <path class="cls-1" d="M27.4,42v30.8c-2.27.02-4.47.75-6.3,2.1-2.9,2.2-5,3.1-7.4,3.1s-4.5-.9-7.4-3.1c-1.83-1.33-4.03-2.07-6.3-2.1v-30.8c2.27-.02,4.47-.75,6.3-2.1,2.9-2.2,5-3.1,7.4-3.1s4.5.9,7.4,3.1c1.85,1.29,4.04,2.02,6.3,2.1Z"/>
</svg>