<?xml version="1.0" encoding="UTF-8"?>
<svg id="bfb63e56-828b-4567-a33b-b8ff132d7a51" xmlns="http://www.w3.org/2000/svg" viewBox="0 0 98.6 94.59">
  <defs>
    <style>
      .cls-1 {
        fill: #535355;
        stroke-width: 0px;
      }
    </style>
  </defs>
  <rect class="cls-1" x="-2.82" y="10.81" width="32.91" height="5.67" transform="translate(-5.65 13.64) rotate(-45)"/>
  <rect class="cls-1" x="34.58" y="1.7" width="5.67" height="32.91" transform="translate(-1.88 31.78) rotate(-45)"/>
  <rect class="cls-1" x="-2.82" y="19.78" width="32.91" height="5.67" transform="translate(-11.99 16.27) rotate(-45)"/>
  <rect class="cls-1" x="34.58" y="10.67" width="5.67" height="32.91" transform="translate(-8.22 34.4) rotate(-45)"/>
  <rect class="cls-1" x="-2.82" y="28.75" width="32.91" height="5.67" transform="translate(-18.34 18.9) rotate(-45)"/>
  <rect class="cls-1" x="34.58" y="19.64" width="5.67" height="32.91" transform="translate(-14.57 37.03) rotate(-45)"/>
  <rect class="cls-1" x="-2.82" y="37.72" width="32.91" height="5.67" transform="translate(-24.68 21.52) rotate(-45)"/>
  <rect class="cls-1" x="34.58" y="28.61" width="5.67" height="32.91" transform="translate(-20.91 39.66) rotate(-45)"/>
  <rect class="cls-1" x="-2.82" y="46.69" width="32.91" height="5.67" transform="translate(-31.02 24.15) rotate(-45)"/>
  <rect class="cls-1" x="34.58" y="37.58" width="5.67" height="32.91" transform="translate(-27.25 42.28) rotate(-45)"/>
  <rect class="cls-1" x="-2.82" y="55.66" width="32.91" height="5.67" transform="translate(-37.36 26.78) rotate(-45)"/>
  <rect class="cls-1" x="34.58" y="46.55" width="5.67" height="32.91" transform="translate(-33.6 44.91) rotate(-45)"/>
  <rect class="cls-1" x="-2.82" y="64.63" width="32.91" height="5.67" transform="translate(-43.71 29.4) rotate(-45)"/>
  <rect class="cls-1" x="34.58" y="55.52" width="5.67" height="32.91" transform="translate(-39.94 47.54) rotate(-45)"/>
  <rect class="cls-1" x="-2.82" y="73.6" width="32.91" height="5.67" transform="translate(-50.05 32.03) rotate(-45)"/>
  <rect class="cls-1" x="34.58" y="64.49" width="5.67" height="32.91" transform="translate(-46.28 50.17) rotate(-45)"/>
  <rect class="cls-1" x="44.73" y="10.81" width="32.91" height="5.67" transform="translate(8.28 47.26) rotate(-45)"/>
  <rect class="cls-1" x="82.13" y="1.7" width="5.67" height="32.91" transform="translate(12.04 65.4) rotate(-45)"/>
  <rect class="cls-1" x="44.73" y="19.78" width="32.91" height="5.67" transform="translate(1.93 49.89) rotate(-45)"/>
  <rect class="cls-1" x="82.13" y="10.67" width="5.67" height="32.91" transform="translate(5.7 68.02) rotate(-45)"/>
  <rect class="cls-1" x="44.73" y="28.75" width="32.91" height="5.67" transform="translate(-4.41 52.52) rotate(-45)"/>
  <rect class="cls-1" x="82.13" y="19.64" width="5.67" height="32.91" transform="translate(-.64 70.65) rotate(-45)"/>
  <rect class="cls-1" x="44.73" y="37.72" width="32.91" height="5.67" transform="translate(-10.75 55.14) rotate(-45)"/>
  <rect class="cls-1" x="82.13" y="28.61" width="5.67" height="32.91" transform="translate(-6.98 73.28) rotate(-45)"/>
  <rect class="cls-1" x="44.73" y="46.69" width="32.91" height="5.67" transform="translate(-17.1 57.77) rotate(-45)"/>
  <rect class="cls-1" x="82.13" y="37.58" width="5.67" height="32.91" transform="translate(-13.33 75.9) rotate(-45)"/>
  <rect class="cls-1" x="44.73" y="55.66" width="32.91" height="5.67" transform="translate(-23.44 60.4) rotate(-45)"/>
  <rect class="cls-1" x="82.13" y="46.55" width="5.67" height="32.91" transform="translate(-19.67 78.53) rotate(-45)"/>
  <rect class="cls-1" x="44.73" y="64.63" width="32.91" height="5.67" transform="translate(-29.78 63.03) rotate(-45)"/>
  <rect class="cls-1" x="82.13" y="55.52" width="5.67" height="32.91" transform="translate(-26.01 81.16) rotate(-45)"/>
  <rect class="cls-1" x="44.73" y="73.6" width="32.91" height="5.67" transform="translate(-36.12 65.65) rotate(-45)"/>
  <rect class="cls-1" x="82.13" y="64.49" width="5.67" height="32.91" transform="translate(-32.35 83.79) rotate(-45)"/>
</svg>