<?xml version="1.0" encoding="UTF-8"?>
<svg id="a607e17b-3a57-4336-9262-e1f4f8ce4a43" xmlns="http://www.w3.org/2000/svg" viewBox="0 0 98.2 85.4">
  <defs>
    <style>
      .cls-1 {
        fill: #535355;
        stroke-width: 0px;
      }
    </style>
  </defs>
  <polygon class="cls-1" points="11.7 22 47 42.3 0 42.3 11.7 22"/>
  <polygon class="cls-1" points="24.2 .4 48.2 42 12.1 21.2 24.2 .4"/>
  <polygon class="cls-1" points="48.7 0 48.7 41.1 24.9 0 48.7 0"/>
  <polygon class="cls-1" points="73.3 0 49.5 41.1 49.5 0 73.3 0"/>
  <polygon class="cls-1" points="85.9 21 50.2 41.6 74 .4 85.9 21"/>
  <polygon class="cls-1" points="24.9 85.4 48.7 44.3 48.7 85.4 24.9 85.4"/>
  <polygon class="cls-1" points="0 43.1 47.6 43.1 11.9 63.8 0 43.1"/>
  <polygon class="cls-1" points="12.4 64.5 47.8 44 24.2 85 12.4 64.5"/>
  <polygon class="cls-1" points="49.5 85.4 49.5 44.3 73.3 85.4 49.5 85.4"/>
  <polygon class="cls-1" points="74 85 50.5 44.3 85.8 64.6 74 85"/>
  <polygon class="cls-1" points="86.2 63.9 50.2 43.1 98.2 43.1 86.2 63.9"/>
  <polygon class="cls-1" points="98.2 42.3 50.9 42.3 86.4 21.7 98.2 42.3"/>
</svg>