<?xml version="1.0" encoding="UTF-8"?>
<svg id="a965c6f8-ac70-4d3b-bed8-03194a92ac9b" xmlns="http://www.w3.org/2000/svg" viewBox="0 0 98.2 96.3">
  <defs>
    <style>
      .cls-1 {
        fill: #535355;
        stroke-width: 0px;
      }
    </style>
  </defs>
  <path class="cls-1" d="M24,23.5H1.9C2.09,11.39,11.89,1.63,24,1.5v22Z"/>
  <path class="cls-1" d="M46.8,23.5h-22V1.5c12.08.18,21.82,9.92,22,22Z"/>
  <path class="cls-1" d="M24,0v.7C11.49.91,1.41,10.99,1.2,23.5H0V0h24Z"/>
  <path class="cls-1" d="M24,47v.8H0v-23.6h1.2c.21,12.51,10.29,22.59,22.8,22.8Z"/>
  <path class="cls-1" d="M1.9,24.2h22.1v22c-12.11-.13-21.91-9.89-22.1-22Z"/>
  <path class="cls-1" d="M24.7,24.2h22c-.21,12.06-9.94,21.79-22,22v-22Z"/>
  <path class="cls-1" d="M48.7,0v23.5h-1.2c-.21-12.51-10.29-22.59-22.8-22.8v-.7h24Z"/>
  <path class="cls-1" d="M47.5,24.2h1.2v23.5h-24v-.8c12.5-.12,22.62-10.2,22.8-22.7Z"/>
  <path class="cls-1" d="M73.5,23.5h-22.1c.19-12.11,9.99-21.87,22.1-22v22Z"/>
  <path class="cls-1" d="M96.2,23.5h-22V1.5c12.09.14,21.86,9.91,22,22Z"/>
  <path class="cls-1" d="M73.5,0v.7c-12.51.21-22.59,10.29-22.8,22.8h-1.2V0h24Z"/>
  <path class="cls-1" d="M73.5,47v.8h-24v-23.6h1.2c.21,12.51,10.29,22.59,22.8,22.8Z"/>
  <path class="cls-1" d="M51.4,24.2h22.1v22c-12.11-.13-21.91-9.89-22.1-22Z"/>
  <path class="cls-1" d="M74.2,24.2h22c-.21,12.06-9.94,21.79-22,22v-22Z"/>
  <path class="cls-1" d="M98.2,0v23.5h-1.2c-.21-12.51-10.29-22.59-22.8-22.8v-.7h24Z"/>
  <path class="cls-1" d="M97,24.2h1.2v23.5h-24v-.8c12.5-.12,22.62-10.2,22.8-22.7Z"/>
  <path class="cls-1" d="M24,72H1.9c.19-12.11,9.99-21.87,22.1-22v22Z"/>
  <path class="cls-1" d="M46.8,72h-22v-22c12.08.18,21.82,9.92,22,22Z"/>
  <path class="cls-1" d="M24,48.4v.7c-12.51.29-22.57,10.39-22.8,22.9H0v-23.6h24Z"/>
  <path class="cls-1" d="M24,95.5v.8H0v-23.6h1.2c.21,12.51,10.29,22.59,22.8,22.8Z"/>
  <path class="cls-1" d="M1.9,72.7h22.1v22c-12.11-.13-21.91-9.89-22.1-22Z"/>
  <path class="cls-1" d="M24.7,72.7h22c-.21,12.06-9.94,21.79-22,22v-22Z"/>
  <path class="cls-1" d="M48.7,48.4v23.5h-1.2c-.21-12.51-10.29-22.59-22.8-22.8v-.7h24Z"/>
  <path class="cls-1" d="M47.5,72.7h1.2v23.5h-24v-.8c12.5-.12,22.62-10.2,22.8-22.7Z"/>
  <path class="cls-1" d="M73.5,72h-22.1c.19-12.11,9.99-21.87,22.1-22v22Z"/>
  <path class="cls-1" d="M96.2,72h-22v-22c12.09.14,21.86,9.91,22,22Z"/>
  <path class="cls-1" d="M73.5,48.4v.7c-12.51.21-22.59,10.29-22.8,22.8h-1.2v-23.5h24Z"/>
  <path class="cls-1" d="M73.5,95.5v.8h-24v-23.6h1.2c.21,12.51,10.29,22.59,22.8,22.8Z"/>
  <path class="cls-1" d="M51.4,72.7h22.1v22c-12.11-.13-21.91-9.89-22.1-22Z"/>
  <path class="cls-1" d="M74.2,72.7h22c-.21,12.06-9.94,21.79-22,22v-22Z"/>
  <path class="cls-1" d="M98.2,48.4v23.5h-1.2c-.21-12.51-10.29-22.59-22.8-22.8v-.7h24Z"/>
  <path class="cls-1" d="M97,72.7h1.2v23.5h-24v-.8c12.5-.12,22.62-10.2,22.8-22.7Z"/>
</svg>