<?xml version="1.0" encoding="UTF-8"?>
<svg id="a"
    xmlns="http://www.w3.org/2000/svg" viewBox="0 0 765.92004 115.96001">
    <defs>
        <style>.b{fill:#fff;}</style>
    </defs>
    <path class="b" d="m.01,57.46l5.21-3.63c12.17,12.23,25.38,12.58,38.55,4.65,1.29,1.48,2.67,3.07,4.33,4.98-2.9,2.83-6.47,4.58-10.21,5.71-12.94,3.9-24.61,1.54-34.73-7.56-1.1-.99-2.11-2.1-3.16-3.15v-.99l.01-.01Z"/>
    <path class="b" d="m57.94,115.96c-1.29-1.69-2.58-3.38-3.94-5.16,11.7-11.45,13.28-24.13,4.77-38.37l4.77-4.74c4.51,5.32,6.76,11.02,7.44,17.32,1.21,11.32-2.12,21.1-10.43,29.1-.59.56-1.07,1.23-1.61,1.85,0,0-1,0-1,0Z"/>
    <path class="b" d="m186.19,41.73h6.86c4.58,5.97,9.28,12.09,14.73,19.19v-19.07h7.35001v32.27h-6.31c-4.81-6.26-9.8-12.74-14.78999-19.23l-.88.23v19.03h-6.95v-32.41999h-.01001Z"/>
    <path class="b" d="m313.95,58.19c-.13,9.65-7.89001,17.06-17.73001,16.92-10.17001-.14-17.70001-7.79-17.45001-17.71.23001-9.55,8.14999-16.81,18.07999-16.59,10.12.23,17.23999,7.47,17.10999,17.38h-.00995Zm-27.26001-.08c.10001,5.7,4.64001,10.21,10.09,10.02,5.25-.18,9.45001-4.71,9.45001-10.19,0-5.65-4.48999-10.3-9.92001-10.29-5.47,0-9.72,4.63-9.62,10.46Z"/>
    <path class="b" d="m235.7,41.57c5.46001,0,10.60001-.37,15.67.08,8.53999.76,14.43999,7.55,14.49998,16,.04999,8.84-5.64999,15.64-14.49001,16.52-5.06.5-10.21001.09-15.67.09v-32.68999h-.00998Zm7.38,25.83c5.12.29,10.08,1.08,13.31-3.71,2.41-3.57,2.44-7.61.16-11.21-3.16-5-8.23-4.57-13.47-4.14v19.06Z"/>
    <path class="b" d="m400.27001,41.79v6.42c-5.87,0-11.41.13-17.35001.13v6h15.07001v6.68h-14.97v6.73h17.38v6.45h-24.73001v-32.41h24.60001Z"/>
    <path class="b" d="m477.07,54.35c3.94-4.18,7.89001-8.35,11.89999-12.6h9.04999c-4.62,4.87-8.67999,9.14-13.04001,13.73,4.51999,6.12,9,12.17,13.85001,18.74h-9.01001c-3.09-4.16-6.32001-8.52-9.85999-13.3-1.38,1.2-2.54999,2.22-3.85001,3.35v9.79h-7.23999v-32.29h6.98999v12.03l1.22.55h-.00998Z"/>
    <path class="b" d="m430.17001,41.24h7.03c4.64999,10.9,9.26999,21.75,14.06,33h-7.66c-1.06-2.25-2.10999-4.46-3.23999-6.84h-13.51001c-1.06,2.25-2.10001,4.45-3.22,6.82h-7.48999l14.03-32.97v-.01001Zm3.41,9.2c-1.57001,3.83-2.70999,6.61-4.01999,9.78h8.12c-1.32001-3.13-2.48001-5.9-4.10999-9.78h.00998Z"/>
    <path class="b" d="m518.84002,74.28v-32.63c5.96997-.1,11.87-1.04,17.65002.67,7.66998,2.27,12.22998,9.21,11.52002,16.99-.71997,7.95-6.60999,14.13-14.78003,14.89-4.59003.43-9.25.08-14.39001.08Zm4.09998-3.99c4.21002,0,8.22998.29,12.03003-.21,5.38-.71,8.83002-6.26,9-11.82.15997-5.26-2.78998-11.14-7.91998-12.1-4.40002-.83-8.62-.45-13.10999-.45v24.59l-.00006-.01Z"/>
    <path class="b" d="m742.24999,74.17c-1.47998.07-3.21002.12-4.09998.16v-32.6c1.08002,0,2.79999-.06,4-.06,6.47998,8.18,12.90997,16.3,19.34003,24.43l.85999-.25v-24.13h3.57001v32.18h-3.28998s-1-1.36-1.48999-1.98c-5.53003-7.01-11.07001-14.01-16.62-21-.48999-.62-1.02002-1.21-2.28998-2.71v25.98l.0199-.02Z"/>
    <path class="b" d="m712.04003,68.06v-7.55h-9.71997c0-1.03.03003-2.32.03003-3.46h13.53998v12.91c-7.97998,6.71-18.95001,6.81-25.31.28-6.04999-6.21-6.20001-17.43-.32001-24,6.09003-6.81,16.39001-7.34,24.46002-1.04l-2,2.78c-4.34998-2.6-8.71002-4.53-13.71997-2.95-2.78998.88-4.98999,2.54-6.59998,4.99-3.72998,5.68-2.92999,13.83,1.82001,18.2,4.66998,4.3,11.81,4.27,17.83002-.14l-.01013-.02Z"/>
    <path class="b" d="m344.46999,74.24h-6.95001v-26.17c-3.57001,0-6.45001,0-9.82999-.03v-6.27h26.76999v6.32c-3.10001-.01-6.47.04-10.04001.04,0,4.6.03,9.11.04001,13.4-.07999,4.2.01999,8.55.01999,12.71h-.00998Z"/>
    <path class="b" d="m591.01,70.84v3.38h-23.71002c0-8.5-.12-24.54-.12-32.48h12.26001c3.91998,0,7.40997.08,11.57001,0v3.58c-6.34003,0-13.14001-.1-19.78003-.1v10.72h17.58002v3.57h-17.65002v11.31h19.85999l-.00995.02Z"/>
    <path class="b" d="m11.81,57.45l-4.68-4.43c8.96-10.44,34.71-12.5,47.97,5l-5.11,4.3c-5.03-5.2-10.74-9.2-18.19-10.04-7.25-.82-13.81.88-19.99,5.16v.01Z"/>
    <path class="b" d="m61.32,57.73c1.81-1.43,3.36-2.65,5.1-4.02,11.27,11.45,23.84,13.37,38.25999,4.93l4.63,4.31c-9.66,10.65-35.32,12.12-47.98-5.22h-.00999Z"/>
    <path class="b" d="m57.65,43.17l-4.36,4.55c-10.23-8.54-12.94-34.03,4.93-47.72l4.39,5.09c-5.48,5.02-9.17,10.87-10.13,18.2-.95,7.25,1.18,13.66,5.18,19.87l-.01.01Z"/>
    <path class="b" d="m116.29,58.19l-4.82,3.89c-15.62-12.02-23.76-13.05-38.32-4.82-.82-.66-1.76-1.33-2.58-2.1-.71-.67-1.3-1.46-1.93-2.18,10.12-12.75,37.18999-9.93,47.64,5.21h.01Z"/>
    <path class="b" d="m58.46,61.14l3.97,5.01c-11.45,11.33-13.47,23.85-4.92,38.09l-4.45,4.8c-12.44-13.34-9.62-37.56,5.4-47.90001Z"/>
    <path class="b" d="m58.66,11.16l4.44-4.18c12.63,10.81,10.15,35.9-4.97,47.89l-4.19-5.16c11.72-11.46,13.35-24.03,4.72-38.55Z"/>
    <path class="b" d="m635.23998,44.96c-.96997,1.2-1.72998,2.54-2.28998,3.23-8.04999-6.22-16.33002-4.67-16.48999,1.34-.07001,2.64,1.62,4.17,4.01001,5.01,1.56.55,3.17999.94,4.77002,1.43,1.75.53,3.54999.94,5.21997,1.65,4.10999,1.73,5.91998,4.49,5.71997,8.37-.21002,3.9-2.64001,7.69-6.71997,8.72-6.97998,1.4-12.62-.71-18.21002-5.18.88-.98,1.95001-2.39,2.34998-2.83,2.67999,2.22,4.96002,3.76,8.07001,4.56,2.60999.67,6.06.91,8.72998-.99,3.15997-2.25,2.91998-7.68-.84003-8.92-2.02002-.66-4.09003-1.28-6.15002-1.89s-4.02002-1.06-6.01001-1.87c-3.28003-1.33-4.90997-3.97-4.90002-7.39.02002-3.8,1.76001-7.35,5.45001-8.47,6.03998-1.84,11.64001-.62,17.29999,3.23h-.00989Z"/>
    <path class="b" d="m155.79,41.67h6.21001c0,4.1.3,32.5.3,32.5h-6.50999v-32.5h-.00002Z"/>
    <path class="b" d="m662.59002,74.26h-3.25v-32.35l3.25-.29v32.65001-.01Z"/>
</svg>