<?xml version="1.0" encoding="UTF-8"?>
<svg id="Layer_1" data-name="Layer 1" xmlns="http://www.w3.org/2000/svg" viewBox="0 0 97.2 77.21">
  <defs>
    <style>
      .cls-1 {
        fill: #acadae;
        stroke-width: 0px;
      }
    </style>
  </defs>
  <path class="cls-1" d="M41.18,5.15v30.49c-2.25.02-4.42.74-6.24,2.08-2.87,2.18-4.95,3.07-7.32,3.07s-4.45-.89-7.32-3.07c-1.91-1.28-4.14-1.99-6.43-2.08V5.15c2.25-.02,4.42-.74,6.24-2.08,2.87-2.18,4.95-3.07,7.32-3.07s4.45.89,7.32,3.07c1.89,1.33,4.13,2.05,6.43,2.08Z"/>
  <path class="cls-1" d="M69.19,5.15v30.49c-2.25.02-4.42.74-6.24,2.08-2.87,2.18-4.95,3.07-7.32,3.07s-4.45-.89-7.32-3.07c-1.91-1.28-4.14-1.99-6.43-2.08V5.15c2.25-.02,4.42-.74,6.24-2.08,2.87-2.18,4.95-3.07,7.32-3.07s4.45.89,7.32,3.07c1.89,1.33,4.13,2.05,6.43,2.08Z"/>
  <path class="cls-1" d="M97.2,5.15v30.49c-2.25.02-4.42.74-6.24,2.08-2.87,2.18-4.95,3.07-7.32,3.07s-4.45-.89-7.32-3.07c-1.91-1.28-4.14-1.99-6.43-2.08V5.15c2.25-.02,4.42-.74,6.24-2.08,2.87-2.18,4.95-3.07,7.32-3.07s4.45.89,7.32,3.07c1.89,1.33,4.13,2.05,6.43,2.08Z"/>
  <path class="cls-1" d="M41.18,5.15v30.49c-2.25.02-4.42.74-6.24,2.08-2.87,2.18-4.95,3.07-7.32,3.07s-4.45-.89-7.32-3.07c-1.91-1.28-4.14-1.99-6.43-2.08V5.15c2.25-.02,4.42-.74,6.24-2.08,2.87-2.18,4.95-3.07,7.32-3.07s4.45.89,7.32,3.07c1.89,1.33,4.13,2.05,6.43,2.08Z"/>
  <path class="cls-1" d="M27.12,41.57v30.49c-2.25.02-4.42.74-6.24,2.08-2.87,2.18-4.95,3.07-7.32,3.07s-4.45-.89-7.32-3.07c-1.81-1.32-3.99-2.05-6.24-2.08v-30.49c2.25-.02,4.42-.74,6.24-2.08,2.87-2.18,4.95-3.07,7.32-3.07s4.45.89,7.32,3.07c1.83,1.28,4,2,6.24,2.08Z"/>
  <path class="cls-1" d="M55.13,41.57v30.49c-2.25.02-4.42.74-6.24,2.08-2.87,2.18-4.95,3.07-7.32,3.07s-4.45-.89-7.32-3.07c-1.81-1.32-3.99-2.05-6.24-2.08v-30.49c2.25-.02,4.42-.74,6.24-2.08,2.87-2.18,4.95-3.07,7.32-3.07s4.45.89,7.32,3.07c1.83,1.28,4,2,6.24,2.08Z"/>
  <path class="cls-1" d="M83.14,41.57v30.49c-2.25.02-4.42.74-6.24,2.08-2.87,2.18-4.95,3.07-7.32,3.07s-4.45-.89-7.32-3.07c-1.81-1.32-3.99-2.05-6.24-2.08v-30.49c2.25-.02,4.42-.74,6.24-2.08,2.87-2.18,4.95-3.07,7.32-3.07s4.45.89,7.32,3.07c1.83,1.28,4,2,6.24,2.08Z"/>
  <path class="cls-1" d="M27.12,41.57v30.49c-2.25.02-4.42.74-6.24,2.08-2.87,2.18-4.95,3.07-7.32,3.07s-4.45-.89-7.32-3.07c-1.81-1.32-3.99-2.05-6.24-2.08v-30.49c2.25-.02,4.42-.74,6.24-2.08,2.87-2.18,4.95-3.07,7.32-3.07s4.45.89,7.32,3.07c1.83,1.28,4,2,6.24,2.08Z"/>
</svg>