<?xml version="1.0" encoding="UTF-8"?>
<svg id="Layer_1" data-name="Layer 1" xmlns="http://www.w3.org/2000/svg" viewBox="0 0 97.28 97.28">
  <defs>
    <style>
      .cls-1 {
        fill: #acadae;
        stroke-width: 0px;
      }
    </style>
  </defs>
  <polygon class="cls-1" points="47.55 0 24.17 23.33 .69 0 47.55 0"/>
  <polygon class="cls-1" points="23.38 24.12 0 47.45 0 .69 23.38 24.12"/>
  <polygon class="cls-1" points="47.55 48.14 .69 48.14 24.17 24.81 47.55 48.14"/>
  <polygon class="cls-1" points="48.24 .69 48.24 47.45 24.86 24.12 48.24 .69"/>
  <polygon class="cls-1" points="72.61 48.14 49.04 48.14 49.04 1.48 72.61 48.14"/>
  <polygon class="cls-1" points="72.61 0 72.61 46.07 49.43 0 72.61 0"/>
  <polygon class="cls-1" points="97.08 0 73.7 46.07 73.7 0 97.08 0"/>
  <polygon class="cls-1" points="97.28 1.78 97.28 48.14 73.7 48.14 97.28 1.78"/>
  <polygon class="cls-1" points="49.73 97.28 73.11 73.95 96.58 97.28 49.73 97.28"/>
  <polygon class="cls-1" points="73.9 73.16 97.28 49.83 97.28 96.59 73.9 73.16"/>
  <polygon class="cls-1" points="49.73 49.13 96.58 49.13 73.11 72.46 49.73 49.13"/>
  <polygon class="cls-1" points="49.04 96.59 49.04 49.83 72.41 73.16 49.04 96.59"/>
  <polygon class="cls-1" points="24.67 49.13 48.24 49.13 48.24 95.79 24.67 49.13"/>
  <polygon class="cls-1" points="24.67 97.28 24.67 51.21 47.85 97.28 24.67 97.28"/>
  <polygon class="cls-1" points=".2 97.28 23.58 51.21 23.58 97.28 .2 97.28"/>
  <polygon class="cls-1" points="0 95.5 0 49.13 23.58 49.13 0 95.5"/>
</svg>