<?xml version="1.0" encoding="utf-8"?>
<!-- Generator: Adobe Illustrator 28.1.0, SVG Export Plug-In . SVG Version: 6.00 Build 0)  -->
<svg version="1.1" id="Layer_1" xmlns="http://www.w3.org/2000/svg" xmlns:xlink="http://www.w3.org/1999/xlink" x="0px" y="0px"
	 viewBox="0 0 97.2 97.2" style="enable-background:new 0 0 97.2 97.2;" xml:space="preserve">
<style type="text/css">
	.st0{fill:#ACADAE;}
</style>
<polygon class="st0" points="47.7,0 24.2,23.4 0.7,0 "/>
<polygon class="st0" points="23.4,24.2 0,47.5 0,0.7 "/>
<polygon class="st0" points="47.7,48.2 0.7,48.2 24.2,24.8 "/>
<polygon class="st0" points="48.4,0.7 48.4,47.5 24.9,24.2 "/>
<polygon class="st0" points="96.6,0 73.2,23.4 49.6,0 "/>
<polygon class="st0" points="72.4,24.2 48.9,47.5 48.9,0.7 "/>
<polygon class="st0" points="96.6,48.2 49.6,48.2 73.2,24.8 "/>
<polygon class="st0" points="97.3,0.7 97.3,47.5 73.9,24.2 "/>
<polygon class="st0" points="47.7,49 24.2,72.4 0.7,49 "/>
<polygon class="st0" points="23.4,73.1 0,96.5 0,49.7 "/>
<polygon class="st0" points="47.7,97.2 0.7,97.2 24.2,73.8 "/>
<polygon class="st0" points="48.4,49.7 48.4,96.5 24.9,73.1 "/>
<polygon class="st0" points="96.6,49 73.2,72.4 49.6,49 "/>
<polygon class="st0" points="72.4,73.1 48.9,96.5 48.9,49.7 "/>
<polygon class="st0" points="96.6,97.2 49.6,97.2 73.2,73.8 "/>
<polygon class="st0" points="97.3,49.7 97.3,96.5 73.9,73.1 "/>
</svg>
