<?xml version="1.0" encoding="UTF-8"?>
<svg id="afff9cc0-f335-47c9-b52a-653c76ec8c7e" xmlns="http://www.w3.org/2000/svg" viewBox="0 0 98.1 82.25">
  <defs>
    <style>
      .cls-1 {
        fill: #abacae;
        stroke-width: 0px;
      }
    </style>
  </defs>
  <path class="cls-1" d="M0,4.47v7.7c0,.21.11.4.3.5l6.6,3.8c.19.1.41.1.6,0l6.6-3.8c.19-.1.3-.29.3-.5v-7.7c0-.21-.11-.4-.3-.5L7.6.07c-.22-.1-.48-.1-.7,0L.3,3.87C.12,4.03.02,4.24,0,4.47Z"/>
  <path class="cls-1" d="M15.2,4.47v7.7c0,.21.11.4.3.5l6.6,3.8c.19.1.41.1.6,0l6.6-3.8c.19-.1.3-.29.3-.5v-7.7c0-.21-.11-.4-.3-.5L22.7.17c-.19-.1-.41-.1-.6,0l-6.6,3.8c-.19.1-.3.29-.3.5Z"/>
  <path class="cls-1" d="M30.4,4.47v7.7c0,.21.11.4.3.5l6.6,3.8c.19.1.41.1.6,0l6.6-3.8c.19-.1.3-.29.3-.5v-7.7c0-.21-.11-.4-.3-.5L37.9.17c-.19-.1-.41-.1-.6,0l-6.6,3.8c-.19.1-.3.29-.3.5Z"/>
  <path class="cls-1" d="M45.6,4.47v7.7c0,.21.11.4.3.5l6.6,3.8c.19.1.41.1.6,0l6.6-3.8c.19-.1.3-.29.3-.5v-7.7c0-.21-.11-.4-.3-.5L53.1.17c-.19-.1-.41-.1-.6,0l-6.6,3.8c-.16.13-.26.3-.3.5Z"/>
  <path class="cls-1" d="M60.9,4.47v7.7c0,.21.11.4.3.5l6.6,3.8c.19.1.41.1.6,0l6.6-3.8c.19-.1.3-.29.3-.5v-7.7c0-.21-.11-.4-.3-.5l-6.6-3.8c-.19-.1-.41-.1-.6,0l-6.6,3.8c-.19.1-.3.29-.3.5Z"/>
  <path class="cls-1" d="M76.1,4.47v7.7c0,.21.11.4.3.5l6.6,3.8c.19.1.41.1.6,0l6.6-3.8c.19-.1.3-.29.3-.5v-7.7c0-.21-.11-.4-.3-.5l-6.6-3.8c-.19-.1-.41-.1-.6,0l-6.6,3.8c-.19.1-.3.29-.3.5Z"/>
  <path class="cls-1" d="M7.6,17.57v7.7c0,.21.11.4.3.5l6.6,3.8c.19.1.41.1.6,0l6.6-3.8c.19-.1.3-.29.3-.5v-7.7c0-.21-.11-.4-.3-.5l-6.6-3.8c-.19-.1-.41-.1-.6,0l-6.6,3.8c-.19.1-.3.29-.3.5Z"/>
  <path class="cls-1" d="M22.8,17.57v7.7c0,.21.11.4.3.5l6.6,3.8c.19.1.41.1.6,0l6.6-3.8c.19-.1.3-.29.3-.5v-7.7c0-.21-.11-.4-.3-.5l-6.6-3.8c-.19-.1-.41-.1-.6,0l-6.6,3.8c-.19.1-.3.29-.3.5Z"/>
  <path class="cls-1" d="M38,17.57v7.7c0,.21.11.4.3.5l6.6,3.8c.19.1.41.1.6,0l6.6-3.8c.19-.1.3-.29.3-.5v-7.7c0-.21-.11-.4-.3-.5l-6.6-3.8c-.19-.1-.41-.1-.6,0l-6.6,3.8c-.16.13-.26.3-.3.5Z"/>
  <path class="cls-1" d="M53.3,17.57v7.7c0,.21.11.4.3.5l6.6,3.8c.19.1.41.1.6,0l6.6-3.8c.19-.1.3-.29.3-.5v-7.7c0-.21-.11-.4-.3-.5l-6.6-3.8c-.19-.1-.41-.1-.6,0l-6.6,3.8c-.19.1-.3.29-.3.5Z"/>
  <path class="cls-1" d="M68.5,17.57v7.7c0,.21.11.4.3.5l6.6,3.8c.19.1.41.1.6,0l6.6-3.8c.19-.1.3-.29.3-.5v-7.7c0-.21-.11-.4-.3-.5l-6.6-3.8c-.19-.1-.41-.1-.6,0l-6.6,3.8c-.19.1-.3.29-.3.5Z"/>
  <path class="cls-1" d="M83.7,17.57v7.7c0,.21.11.4.3.5l6.6,3.8c.19.1.41.1.6,0l6.6-3.8c.19-.1.3-.29.3-.5v-7.7c0-.21-.11-.4-.3-.5l-6.6-3.8c-.19-.1-.41-.1-.6,0l-6.6,3.8c-.19.1-.3.29-.3.5Z"/>
  <path class="cls-1" d="M0,30.77v7.7c0,.21.11.4.3.5l6.6,3.8c.19.1.41.1.6,0l6.6-3.8c.19-.1.3-.29.3-.5v-7.7c0-.21-.11-.4-.3-.5l-6.6-3.8c-.19-.1-.41-.1-.6,0L.3,30.27C.11,30.37,0,30.56,0,30.77Z"/>
  <path class="cls-1" d="M15.2,30.77v7.7c0,.21.11.4.3.5l6.6,3.8c.19.1.41.1.6,0l6.6-3.8c.19-.1.3-.29.3-.5v-7.7c0-.21-.11-.4-.3-.5l-6.6-3.8c-.19-.1-.41-.1-.6,0l-6.6,3.8c-.19.1-.3.29-.3.5Z"/>
  <path class="cls-1" d="M30.4,30.77v7.7c0,.21.11.4.3.5l6.6,3.8c.19.1.41.1.6,0l6.6-3.8c.19-.1.3-.29.3-.5v-7.7c0-.21-.11-.4-.3-.5l-6.6-3.8c-.19-.1-.41-.1-.6,0l-6.6,3.8c-.19.1-.3.29-.3.5Z"/>
  <path class="cls-1" d="M45.6,30.77v7.7c0,.21.11.4.3.5l6.6,3.8c.19.1.41.1.6,0l6.6-3.8c.19-.1.3-.29.3-.5v-7.7c0-.21-.11-.4-.3-.5l-6.6-3.8c-.19-.1-.41-.1-.6,0l-6.6,3.8c-.16.13-.26.3-.3.5Z"/>
  <path class="cls-1" d="M60.9,30.77v7.7c0,.21.11.4.3.5l6.6,3.8c.19.1.41.1.6,0l6.6-3.8c.19-.1.3-.29.3-.5v-7.7c0-.21-.11-.4-.3-.5l-6.6-3.8c-.19-.1-.41-.1-.6,0l-6.6,3.8c-.19.1-.3.29-.3.5Z"/>
  <path class="cls-1" d="M76.1,30.77v7.7c0,.21.11.4.3.5l6.6,3.8c.19.1.41.1.6,0l6.6-3.8c.19-.1.3-.29.3-.5v-7.7c0-.21-.11-.4-.3-.5l-6.6-3.8c-.19-.1-.41-.1-.6,0l-6.6,3.8c-.19.1-.3.29-.3.5Z"/>
  <path class="cls-1" d="M7.6,43.87v7.7c0,.21.11.4.3.5l6.6,3.8c.19.1.41.1.6,0l6.6-3.8c.19-.1.3-.29.3-.5v-7.7c0-.21-.11-.4-.3-.5l-6.6-3.8c-.19-.1-.41-.1-.6,0l-6.6,3.8c-.19.1-.3.29-.3.5Z"/>
  <path class="cls-1" d="M22.8,43.87v7.7c0,.21.11.4.3.5l6.6,3.8c.19.1.41.1.6,0l6.6-3.8c.19-.1.3-.29.3-.5v-7.7c0-.21-.11-.4-.3-.5l-6.6-3.8c-.19-.1-.41-.1-.6,0l-6.6,3.8c-.19.1-.3.29-.3.5Z"/>
  <path class="cls-1" d="M38,43.87v7.7c0,.21.11.4.3.5l6.6,3.8c.19.1.41.1.6,0l6.6-3.8c.19-.1.3-.29.3-.5v-7.7c0-.21-.11-.4-.3-.5l-6.6-3.8c-.19-.1-.41-.1-.6,0l-6.6,3.8c-.16.13-.26.3-.3.5Z"/>
  <path class="cls-1" d="M53.3,43.87v7.7c0,.21.11.4.3.5l6.6,3.8c.19.1.41.1.6,0l6.6-3.8c.19-.1.3-.29.3-.5v-7.7c0-.21-.11-.4-.3-.5l-6.6-3.8c-.19-.1-.41-.1-.6,0l-6.6,3.8c-.19.1-.3.29-.3.5Z"/>
  <path class="cls-1" d="M68.5,43.87v7.7c0,.21.11.4.3.5l6.6,3.8c.19.1.41.1.6,0l6.6-3.8c.19-.1.3-.29.3-.5v-7.7c0-.21-.11-.4-.3-.5l-6.6-3.8c-.19-.1-.41-.1-.6,0l-6.6,3.8c-.19.1-.3.29-.3.5Z"/>
  <path class="cls-1" d="M83.7,43.87v7.7c0,.21.11.4.3.5l6.6,3.8c.19.1.41.1.6,0l6.6-3.8c.19-.1.3-.29.3-.5v-7.7c0-.21-.11-.4-.3-.5l-6.6-3.8c-.19-.1-.41-.1-.6,0l-6.6,3.8c-.19.1-.3.29-.3.5Z"/>
  <path class="cls-1" d="M0,57.07v7.7c0,.21.11.4.3.5l6.6,3.8c.22.1.48.1.7,0l6.6-3.8c.19-.1.3-.29.3-.5v-7.7c0-.21-.11-.4-.3-.5l-6.6-3.8c-.19-.1-.41-.1-.6,0l-6.6,3.8c-.23.05-.4.26-.4.5Z"/>
  <path class="cls-1" d="M15.2,57.07v7.7c0,.21.11.4.3.5l6.6,3.8c.19.1.41.1.6,0l6.6-3.8c.19-.1.3-.29.3-.5v-7.7c0-.21-.11-.4-.3-.5l-6.6-3.8c-.19-.1-.41-.1-.6,0l-6.6,3.8c-.19.1-.3.29-.3.5Z"/>
  <path class="cls-1" d="M30.4,57.07v7.7c0,.21.11.4.3.5l6.6,3.8c.19.1.41.1.6,0l6.6-3.8c.19-.1.3-.29.3-.5v-7.7c0-.21-.11-.4-.3-.5l-6.6-3.8c-.19-.1-.41-.1-.6,0l-6.6,3.8c-.19.1-.3.29-.3.5Z"/>
  <path class="cls-1" d="M45.6,57.07v7.7c0,.21.11.4.3.5l6.6,3.8c.19.1.41.1.6,0l6.6-3.8c.19-.1.3-.29.3-.5v-7.7c0-.21-.11-.4-.3-.5l-6.6-3.8c-.19-.1-.41-.1-.6,0l-6.6,3.8c-.16.13-.26.3-.3.5Z"/>
  <path class="cls-1" d="M60.9,57.07v7.7c0,.21.11.4.3.5l6.6,3.8c.19.1.41.1.6,0l6.6-3.8c.19-.1.3-.29.3-.5v-7.7c0-.21-.11-.4-.3-.5l-6.6-3.8c-.19-.1-.41-.1-.6,0l-6.6,3.8c-.19.1-.3.29-.3.5Z"/>
  <path class="cls-1" d="M76.1,57.07v7.7c0,.21.11.4.3.5l6.6,3.8c.19.1.41.1.6,0l6.6-3.8c.19-.1.3-.29.3-.5v-7.7c0-.21-.11-.4-.3-.5l-6.6-3.8c-.19-.1-.41-.1-.6,0l-6.6,3.8c-.19.1-.3.29-.3.5Z"/>
  <path class="cls-1" d="M7.6,70.17v7.7c0,.21.11.4.3.5l6.6,3.8c.19.1.41.1.6,0l6.6-3.8c.19-.1.3-.29.3-.5v-7.7c0-.21-.11-.4-.3-.5l-6.6-3.8c-.19-.1-.41-.1-.6,0l-6.6,3.8c-.19.1-.3.29-.3.5Z"/>
  <path class="cls-1" d="M22.8,70.17v7.7c0,.21.11.4.3.5l6.6,3.8c.19.1.41.1.6,0l6.6-3.8c.19-.1.3-.29.3-.5v-7.7c0-.21-.11-.4-.3-.5l-6.6-3.8c-.19-.1-.41-.1-.6,0l-6.6,3.8c-.19.1-.3.29-.3.5Z"/>
  <path class="cls-1" d="M38,70.17v7.7c0,.21.11.4.3.5l6.6,3.8c.19.1.41.1.6,0l6.6-3.8c.19-.1.3-.29.3-.5v-7.7c0-.21-.11-.4-.3-.5l-6.6-3.8c-.19-.1-.41-.1-.6,0l-6.6,3.8c-.16.13-.26.3-.3.5Z"/>
  <path class="cls-1" d="M53.3,70.17v7.7c0,.21.11.4.3.5l6.6,3.8c.19.1.41.1.6,0l6.6-3.8c.19-.1.3-.29.3-.5v-7.7c0-.21-.11-.4-.3-.5l-6.6-3.8c-.19-.1-.41-.1-.6,0l-6.6,3.8c-.19.1-.3.29-.3.5Z"/>
  <path class="cls-1" d="M68.5,70.17v7.7c0,.21.11.4.3.5l6.6,3.8c.19.1.41.1.6,0l6.6-3.8c.19-.1.3-.29.3-.5v-7.7c0-.21-.11-.4-.3-.5l-6.6-3.8c-.19-.1-.41-.1-.6,0l-6.6,3.8c-.19.1-.3.29-.3.5Z"/>
  <path class="cls-1" d="M83.7,70.17v7.7c0,.21.11.4.3.5l6.6,3.8c.19.1.41.1.6,0l6.6-3.8c.19-.1.3-.29.3-.5v-7.7c0-.21-.11-.4-.3-.5l-6.6-3.8c-.19-.1-.41-.1-.6,0l-6.6,3.8c-.19.1-.3.29-.3.5Z"/>
</svg>