<?xml version="1.0" encoding="UTF-8"?>
<svg id="aaf0937a-9efc-4c47-ab2b-02d02e216d31" xmlns="http://www.w3.org/2000/svg" viewBox="0 0 98.8 98.6">
  <defs>
    <style>
      .cls-1 {
        fill: #abacae;
        stroke-width: 0px;
      }
    </style>
  </defs>
  <polygon class="cls-1" points="23.8 98.6 0 98.6 0 51.4 23.8 98.6"/>
  <polygon class="cls-1" points="23.8 49.9 23.8 96.6 .4 49.9 23.8 49.9"/>
  <polygon class="cls-1" points="48.5 49.9 24.9 96.6 24.9 49.9 48.5 49.9"/>
  <polygon class="cls-1" points="48.7 51.8 48.7 98.6 24.9 98.6 48.7 51.8"/>
  <polygon class="cls-1" points="73.9 98.6 50.1 98.6 50.1 51.4 73.9 98.6"/>
  <polygon class="cls-1" points="73.9 49.9 73.9 96.6 50.5 49.9 73.9 49.9"/>
  <polygon class="cls-1" points="98.6 49.9 75 96.6 75 49.9 98.6 49.9"/>
  <polygon class="cls-1" points="98.8 51.8 98.8 98.6 75 98.6 98.8 51.8"/>
  <polygon class="cls-1" points="75 0 98.8 0 98.8 47.2 75 0"/>
  <polygon class="cls-1" points="75 48.7 75 2 98.4 48.7 75 48.7"/>
  <polygon class="cls-1" points="50.3 48.7 73.9 2 73.9 48.7 50.3 48.7"/>
  <polygon class="cls-1" points="50.1 46.8 50.1 0 73.9 0 50.1 46.8"/>
  <polygon class="cls-1" points="24.9 0 48.7 0 48.7 47.2 24.9 0"/>
  <polygon class="cls-1" points="24.9 48.7 24.9 2 48.3 48.7 24.9 48.7"/>
  <polygon class="cls-1" points=".2 48.7 23.8 2 23.8 48.7 .2 48.7"/>
  <polygon class="cls-1" points="0 46.8 0 0 23.8 0 0 46.8"/>
</svg>